<svg width="60" height="47" viewBox="0 0 60 47" fill="none" xmlns="http://www.w3.org/2000/svg">
<path d="M48.75 45.5H38.9062C38.1328 45.5 37.5 44.8672 37.5 44.0938V39.4063C37.5 38.6328 38.1328 38 38.9062 38H48.75C50.8242 38 52.5 36.3242 52.5 34.25V11.75C52.5 9.67578 50.8242 8 48.75 8H38.9062C38.1328 8 37.5 7.36719 37.5 6.59375V1.90625C37.5 1.13281 38.1328 0.5 38.9062 0.5H48.75C54.9609 0.5 60 5.53906 60 11.75V34.25C60 40.4609 54.9609 45.5 48.75 45.5ZM43.2422 21.9453L23.5547 2.25781C21.7969 0.5 18.75 1.73047 18.75 4.25V15.5H2.8125C1.25391 15.5 0 16.7539 0 18.3125V29.5625C0 31.1211 1.25391 32.375 2.8125 32.375H18.75V43.625C18.75 46.1445 21.7969 47.375 23.5547 45.6172L43.2422 25.9297C44.332 24.8281 44.332 23.0469 43.2422 21.9453Z" fill="#10D468"/>
</svg>
